<mxfile host="app.diagrams.net" modified="2023-12-23T19:58:53.036Z" agent="Mozilla/5.0 (Windows NT 10.0; Win64; x64) AppleWebKit/537.36 (KHTML, like Gecko) Chrome/120.0.0.0 Safari/537.36" etag="8Ds-ed1K1rKgzXVbGq2v" version="22.1.11" type="device">
  <diagram name="Sayfa -1" id="y4hgfWZpjkNqAuEJEgX2">
    <mxGraphModel dx="1674" dy="746" grid="1" gridSize="10" guides="1" tooltips="1" connect="1" arrows="1" fold="1" page="1" pageScale="1" pageWidth="827" pageHeight="1169" math="0" shadow="0">
      <root>
        <mxCell id="0" />
        <mxCell id="1" parent="0" />
        <mxCell id="VVYYgeK9ArzX5R3erp9a-7" style="edgeStyle=orthogonalEdgeStyle;rounded=0;orthogonalLoop=1;jettySize=auto;html=1;entryX=0.5;entryY=0;entryDx=0;entryDy=0;" edge="1" parent="1" source="VVYYgeK9ArzX5R3erp9a-1" target="VVYYgeK9ArzX5R3erp9a-2">
          <mxGeometry relative="1" as="geometry" />
        </mxCell>
        <mxCell id="VVYYgeK9ArzX5R3erp9a-1" value="Giriş" style="ellipse;whiteSpace=wrap;html=1;" vertex="1" parent="1">
          <mxGeometry x="240" y="40" width="120" height="80" as="geometry" />
        </mxCell>
        <mxCell id="VVYYgeK9ArzX5R3erp9a-8" style="edgeStyle=orthogonalEdgeStyle;rounded=0;orthogonalLoop=1;jettySize=auto;html=1;entryX=0.5;entryY=0;entryDx=0;entryDy=0;" edge="1" parent="1" source="VVYYgeK9ArzX5R3erp9a-2" target="VVYYgeK9ArzX5R3erp9a-3">
          <mxGeometry relative="1" as="geometry" />
        </mxCell>
        <mxCell id="VVYYgeK9ArzX5R3erp9a-2" value="sayi" style="shape=parallelogram;perimeter=parallelogramPerimeter;whiteSpace=wrap;html=1;fixedSize=1;" vertex="1" parent="1">
          <mxGeometry x="240" y="200" width="120" height="60" as="geometry" />
        </mxCell>
        <mxCell id="VVYYgeK9ArzX5R3erp9a-9" style="edgeStyle=orthogonalEdgeStyle;rounded=0;orthogonalLoop=1;jettySize=auto;html=1;" edge="1" parent="1" source="VVYYgeK9ArzX5R3erp9a-3" target="VVYYgeK9ArzX5R3erp9a-4">
          <mxGeometry relative="1" as="geometry" />
        </mxCell>
        <mxCell id="VVYYgeK9ArzX5R3erp9a-11" value="EVET" style="edgeLabel;html=1;align=center;verticalAlign=middle;resizable=0;points=[];" vertex="1" connectable="0" parent="VVYYgeK9ArzX5R3erp9a-9">
          <mxGeometry x="-0.6235" y="4" relative="1" as="geometry">
            <mxPoint as="offset" />
          </mxGeometry>
        </mxCell>
        <mxCell id="VVYYgeK9ArzX5R3erp9a-3" value="sayi % 2 === 0" style="rhombus;whiteSpace=wrap;html=1;" vertex="1" parent="1">
          <mxGeometry x="220" y="320" width="160" height="80" as="geometry" />
        </mxCell>
        <mxCell id="VVYYgeK9ArzX5R3erp9a-13" style="edgeStyle=orthogonalEdgeStyle;rounded=0;orthogonalLoop=1;jettySize=auto;html=1;entryX=0.5;entryY=0;entryDx=0;entryDy=0;" edge="1" parent="1" source="VVYYgeK9ArzX5R3erp9a-4" target="VVYYgeK9ArzX5R3erp9a-6">
          <mxGeometry relative="1" as="geometry" />
        </mxCell>
        <mxCell id="VVYYgeK9ArzX5R3erp9a-4" value="Girdiğiniz sayi çift" style="shape=document;whiteSpace=wrap;html=1;boundedLbl=1;" vertex="1" parent="1">
          <mxGeometry x="50" y="420" width="120" height="80" as="geometry" />
        </mxCell>
        <mxCell id="VVYYgeK9ArzX5R3erp9a-14" style="edgeStyle=orthogonalEdgeStyle;rounded=0;orthogonalLoop=1;jettySize=auto;html=1;entryX=0.5;entryY=0;entryDx=0;entryDy=0;" edge="1" parent="1" source="VVYYgeK9ArzX5R3erp9a-5" target="VVYYgeK9ArzX5R3erp9a-6">
          <mxGeometry relative="1" as="geometry">
            <mxPoint x="280" y="540" as="targetPoint" />
          </mxGeometry>
        </mxCell>
        <mxCell id="VVYYgeK9ArzX5R3erp9a-5" value="Girdiğiniz sayi tek" style="shape=document;whiteSpace=wrap;html=1;boundedLbl=1;" vertex="1" parent="1">
          <mxGeometry x="460" y="420" width="120" height="80" as="geometry" />
        </mxCell>
        <mxCell id="VVYYgeK9ArzX5R3erp9a-6" value="Bitiş" style="ellipse;whiteSpace=wrap;html=1;" vertex="1" parent="1">
          <mxGeometry x="240" y="545" width="120" height="80" as="geometry" />
        </mxCell>
        <mxCell id="VVYYgeK9ArzX5R3erp9a-10" style="edgeStyle=orthogonalEdgeStyle;rounded=0;orthogonalLoop=1;jettySize=auto;html=1;entryX=0.433;entryY=-0.012;entryDx=0;entryDy=0;entryPerimeter=0;" edge="1" parent="1" source="VVYYgeK9ArzX5R3erp9a-3" target="VVYYgeK9ArzX5R3erp9a-5">
          <mxGeometry relative="1" as="geometry" />
        </mxCell>
        <mxCell id="VVYYgeK9ArzX5R3erp9a-12" value="HAYIR" style="edgeLabel;html=1;align=center;verticalAlign=middle;resizable=0;points=[];" vertex="1" connectable="0" parent="VVYYgeK9ArzX5R3erp9a-10">
          <mxGeometry x="-0.6022" y="-1" relative="1" as="geometry">
            <mxPoint as="offset" />
          </mxGeometry>
        </mxCell>
      </root>
    </mxGraphModel>
  </diagram>
</mxfile>
